<svg height="512pt" viewBox="0 -21 512 512" width="512pt" xmlns="http://www.w3.org/2000/svg"><g fill-rule="evenodd"><path d="m10.007812 10.007812h320.539063v449.542969h-320.539063zm0 0" fill="#ffdda0"/><path d="m65.28125 65.28125h84.246094v84.246094h-84.246094zm0 0" fill="#ff8f8e"/><path d="m469.359375 157.917969c43.511719 43.511719 43.511719 114.066406 0 157.578125-21.742187 21.769531-50.257813 32.625-78.773437 32.625-28.515626 0-57.03125-10.855469-78.804688-32.625-43.511719-43.511719-43.511719-114.066406 0-157.578125 43.515625-43.511719 114.066406-43.511719 157.578125 0zm0 0" fill="#67e4dc"/><path d="m65.28125 159.535156h84.246094c5.527344 0 10.007812-4.480468 10.007812-10.007812v-84.246094c0-5.523438-4.480468-10.003906-10.007812-10.003906h-84.246094c-5.523438 0-10.003906 4.480468-10.003906 10.003906v84.246094c-.003906 5.527344 4.476562 10.007812 10.003906 10.007812zm10.007812-84.246094h64.230469v64.230469h-64.230469zm0 0"/><path d="m65.28125 201.65625h180.625c5.527344 0 10.003906-4.480469 10.003906-10.003906 0-5.527344-4.476562-10.007813-10.003906-10.007813h-180.625c-5.523438 0-10.003906 4.480469-10.003906 10.007813-.003906 5.523437 4.476562 10.003906 10.003906 10.003906zm0 0"/><path d="m65.28125 243.777344h171.183594c5.527344 0 10.007812-4.476563 10.007812-10.003906 0-5.527344-4.480468-10.007813-10.007812-10.007813h-171.183594c-5.523438 0-10.003906 4.480469-10.003906 10.007813-.003906 5.527343 4.476562 10.003906 10.003906 10.003906zm0 0"/><path d="m187.910156 159.535156h77.980469c5.523437 0 10.003906-4.480468 10.003906-10.007812 0-5.523438-4.476562-10.003906-10.003906-10.003906h-77.980469c-5.527344 0-10.007812 4.480468-10.007812 10.003906 0 5.527344 4.480468 10.007812 10.007812 10.007812zm0 0"/><path d="m187.910156 75.289062h92.945313c5.527343 0 10.007812-4.480468 10.007812-10.007812 0-5.523438-4.480469-10.003906-10.007812-10.003906h-92.945313c-5.527344 0-10.007812 4.480468-10.007812 10.003906 0 5.527344 4.480468 10.007812 10.007812 10.007812zm0 0"/><path d="m187.910156 117.410156h92.945313c5.527343 0 10.007812-4.480468 10.007812-10.003906 0-5.527344-4.480469-10.007812-10.007812-10.007812h-92.945313c-5.527344 0-10.007812 4.480468-10.007812 10.007812 0 5.523438 4.480468 10.003906 10.007812 10.003906zm0 0"/><path d="m280.855469 392.285156h-215.574219c-5.523438 0-10.003906 4.480469-10.003906 10.007813 0 5.523437 4.480468 10.003906 10.003906 10.003906h215.574219c5.527343 0 10.007812-4.480469 10.007812-10.003906 0-5.527344-4.480469-10.007813-10.007812-10.007813zm0 0"/><path d="m55.273438 360.167969c0 5.527343 4.480468 10.007812 10.007812 10.007812h215.574219c5.527343 0 10.003906-4.480469 10.003906-10.007812 0-5.523438-4.476563-10.003907-10.003906-10.003907h-215.574219c-5.527344 0-10.007812 4.480469-10.007812 10.003907zm0 0"/><path d="m65.28125 328.054688h198.480469c5.527343 0 10.007812-4.480469 10.007812-10.007813 0-5.523437-4.480469-10.003906-10.007812-10.003906h-198.480469c-5.523438 0-10.003906 4.480469-10.003906 10.003906-.003906 5.527344 4.476562 10.007813 10.003906 10.007813zm0 0"/><path d="m65.28125 285.902344h178.242188c5.527343 0 10.007812-4.480469 10.007812-10.007813 0-5.523437-4.480469-10.003906-10.007812-10.003906h-178.242188c-5.523438 0-10.003906 4.480469-10.003906 10.003906 0 5.527344 4.476562 10.007813 10.003906 10.007813zm0 0"/><path d="m512 236.707031c0-32.4375-12.632812-62.929687-35.566406-85.863281-22.933594-22.9375-53.425782-35.566406-85.863282-35.566406-17.535156 0-34.503906 3.699218-50.015624 10.714844v-115.984376c0-5.527343-4.480469-10.007812-10.007813-10.007812h-320.539063c-5.527343 0-10.007812 4.480469-10.007812 10.007812v449.542969c0 5.527344 4.480469 10.007813 10.007812 10.007813h320.539063c5.527344 0 10.007813-4.480469 10.007813-10.007813v-112.136719c12.542968 5.675782 26.042968 9.171876 40.023437 10.304688v101.832031c0 5.527344 4.480469 10.007813 10.007813 10.007813 5.523437 0 10.003906-4.480469 10.003906-10.007813v-101.832031c28.683594-2.320312 55.316406-14.589844 75.84375-35.148438 22.9375-22.933593 35.566406-53.425781 35.566406-85.863281zm-121.414062 101.410157c-19.550782 0-38.253907-5.488282-54.34375-15.734376-.105469-.074218-.214844-.140624-.324219-.210937-6.09375-3.914063-11.816407-8.507813-17.058594-13.75-10.273437-10.273437-18.070313-22.347656-23.167969-35.882813-1.949218-5.171874-7.722656-7.785156-12.890625-5.835937-5.171875 1.949219-7.785156 7.71875-5.835937 12.890625 6.109375 16.21875 15.441406 30.679688 27.742187 42.976562 4.945313 4.945313 10.242188 9.410157 15.832031 13.371094v113.605469h-300.527343v-429.535156h300.53125v117.460937c-5.59375 3.960938-10.890625 8.425782-15.835938 13.371094-12.300781 12.296875-21.632812 26.757812-27.742187 42.976562-1.949219 5.171876.664062 10.945313 5.835937 12.890626 5.175781 1.949218 10.941407-.664063 12.890625-5.835938 5.101563-13.535156 12.894532-25.609375 23.167969-35.878906 39.542969-39.546875 103.882813-39.542969 143.425781 0 19.15625 19.152344 29.703125 44.621094 29.703125 71.710937 0 27.089844-10.546875 52.558594-29.707031 71.71875-19.121094 19.144531-44.585938 29.691407-71.695312 29.691407zm0 0"/><path d="m279.15625 226.714844c-5.5 0-10.007812 4.480468-10.007812 10.007812 0 5.496094 4.507812 9.976563 10.007812 9.976563s10.003906-4.480469 10.003906-9.976563c0-5.53125-4.503906-10.007812-10.003906-10.007812zm0 0"/></g></svg>